<svg width="363" height="50" viewBox="0 0 363 50" fill="none" xmlns="http://www.w3.org/2000/svg">
<rect x="0.5" y="0.5" width="362" height="49" rx="24.5" stroke="black" stroke-miterlimit="3.99933" stroke-dasharray="7 2"/>
<path d="M26.668 33L26.68 20.04H28.456V26.28L34.24 20.04H36.592L30.52 26.52L37.384 33H34.816L28.456 26.76V33H26.668ZM43.7639 33.36C42.4759 33.36 41.3759 33.068 40.4639 32.484C39.5519 31.9 38.8519 31.092 38.3639 30.06C37.8759 29.028 37.6319 27.844 37.6319 26.508C37.6319 25.148 37.8799 23.956 38.3759 22.932C38.8719 21.908 39.5759 21.112 40.4879 20.544C41.4079 19.968 42.4999 19.68 43.7639 19.68C45.0599 19.68 46.1639 19.972 47.0759 20.556C47.9959 21.132 48.6959 21.936 49.1759 22.968C49.6639 23.992 49.9079 25.172 49.9079 26.508C49.9079 27.868 49.6639 29.064 49.1759 30.096C48.6879 31.12 47.9839 31.92 47.0639 32.496C46.1439 33.072 45.0439 33.36 43.7639 33.36ZM43.7639 31.668C45.2039 31.668 46.2759 31.192 46.9799 30.24C47.6839 29.28 48.0359 28.036 48.0359 26.508C48.0359 24.94 47.6799 23.692 46.9679 22.764C46.2639 21.836 45.1959 21.372 43.7639 21.372C42.7959 21.372 41.9959 21.592 41.3639 22.032C40.7399 22.464 40.2719 23.068 39.9599 23.844C39.6559 24.612 39.5039 25.5 39.5039 26.508C39.5039 28.068 39.8639 29.32 40.5839 30.264C41.3039 31.2 42.3639 31.668 43.7639 31.668ZM55.7663 33V21.672H51.1703V20.04H62.1263V21.672H57.5303V33H55.7663ZM69.592 33.36C68.304 33.36 67.204 33.068 66.292 32.484C65.38 31.9 64.68 31.092 64.192 30.06C63.704 29.028 63.46 27.844 63.46 26.508C63.46 25.148 63.708 23.956 64.204 22.932C64.7 21.908 65.404 21.112 66.316 20.544C67.236 19.968 68.328 19.68 69.592 19.68C70.888 19.68 71.992 19.972 72.904 20.556C73.824 21.132 74.524 21.936 75.004 22.968C75.492 23.992 75.736 25.172 75.736 26.508C75.736 27.868 75.492 29.064 75.004 30.096C74.516 31.12 73.812 31.92 72.892 32.496C71.972 33.072 70.872 33.36 69.592 33.36ZM69.592 31.668C71.032 31.668 72.104 31.192 72.808 30.24C73.512 29.28 73.864 28.036 73.864 26.508C73.864 24.94 73.508 23.692 72.796 22.764C72.092 21.836 71.024 21.372 69.592 21.372C68.624 21.372 67.824 21.592 67.192 22.032C66.568 22.464 66.1 23.068 65.788 23.844C65.484 24.612 65.332 25.5 65.332 26.508C65.332 28.068 65.692 29.32 66.412 30.264C67.132 31.2 68.192 31.668 69.592 31.668ZM84.2031 33.36C83.0111 33.36 82.0031 33.06 81.1791 32.46C80.3551 31.852 79.7311 31.032 79.3071 30C78.8831 28.96 78.6711 27.796 78.6711 26.508C78.6711 25.196 78.8831 24.028 79.3071 23.004C79.7391 21.972 80.3711 21.16 81.2031 20.568C82.0351 19.976 83.0591 19.68 84.2751 19.68C85.4591 19.68 86.4751 19.98 87.3231 20.58C88.1711 21.18 88.8191 21.996 89.2671 23.028C89.7231 24.06 89.9511 25.22 89.9511 26.508C89.9511 27.804 89.7231 28.968 89.2671 30C88.8111 31.032 88.1551 31.852 87.2991 32.46C86.4431 33.06 85.4111 33.36 84.2031 33.36ZM78.3711 38.76V20.04H79.9551V29.796H80.1471V38.76H78.3711ZM84.0231 31.716C84.9271 31.716 85.6791 31.488 86.2791 31.032C86.8791 30.576 87.3271 29.956 87.6231 29.172C87.9271 28.38 88.0791 27.492 88.0791 26.508C88.0791 25.532 87.9311 24.652 87.6351 23.868C87.3391 23.084 86.8871 22.464 86.2791 22.008C85.6791 21.552 84.9151 21.324 83.9871 21.324C83.0831 21.324 82.3311 21.544 81.7311 21.984C81.1391 22.424 80.6951 23.036 80.3991 23.82C80.1031 24.596 79.9551 25.492 79.9551 26.508C79.9551 27.508 80.1031 28.404 80.3991 29.196C80.6951 29.98 81.1431 30.596 81.7431 31.044C82.3431 31.492 83.1031 31.716 84.0231 31.716ZM92.5983 33L92.5743 20.04H94.3503V24.924H96.6063C96.9823 24.924 97.3503 24.932 97.7103 24.948C98.0703 24.964 98.3943 24.996 98.6823 25.044C99.3223 25.172 99.8903 25.388 100.386 25.692C100.882 25.996 101.274 26.416 101.562 26.952C101.85 27.48 101.994 28.148 101.994 28.956C101.994 30.068 101.706 30.944 101.13 31.584C100.554 32.224 99.8303 32.64 98.9583 32.832C98.6303 32.904 98.2743 32.952 97.8903 32.976C97.5063 32.992 97.1303 33 96.7623 33H92.5983ZM94.3503 31.488H96.6903C96.9543 31.488 97.2543 31.48 97.5903 31.464C97.9263 31.448 98.2223 31.404 98.4783 31.332C98.9103 31.212 99.2983 30.972 99.6423 30.612C99.9943 30.244 100.17 29.692 100.17 28.956C100.17 28.228 100.002 27.68 99.6663 27.312C99.3303 26.936 98.8823 26.688 98.3223 26.568C98.0663 26.512 97.7943 26.476 97.5063 26.46C97.2263 26.444 96.9543 26.436 96.6903 26.436H94.3503V31.488ZM103.542 33V20.04H105.306V33H103.542ZM114.148 33.36C112.884 33.36 111.788 33.08 110.86 32.52C109.94 31.96 109.224 31.172 108.712 30.156C108.2 29.14 107.944 27.948 107.944 26.58C107.944 25.164 108.196 23.94 108.7 22.908C109.204 21.876 109.912 21.08 110.824 20.52C111.744 19.96 112.828 19.68 114.076 19.68C115.356 19.68 116.448 19.976 117.352 20.568C118.256 21.152 118.94 21.992 119.404 23.088C119.868 24.184 120.08 25.492 120.04 27.012H118.24V26.388C118.208 24.708 117.844 23.44 117.148 22.584C116.46 21.728 115.452 21.3 114.124 21.3C112.732 21.3 111.664 21.752 110.92 22.656C110.184 23.56 109.816 24.848 109.816 26.52C109.816 28.152 110.184 29.42 110.92 30.324C111.664 31.22 112.716 31.668 114.076 31.668C115.004 31.668 115.812 31.456 116.5 31.032C117.196 30.6 117.744 29.98 118.144 29.172L119.788 29.808C119.276 30.936 118.52 31.812 117.52 32.436C116.528 33.052 115.404 33.36 114.148 33.36ZM109.192 27.012V25.536H119.092V27.012H109.192ZM127.496 33V20.04H137.804V33H136.04V21.732H129.26V33H127.496ZM146.584 33.36C145.296 33.36 144.196 33.068 143.284 32.484C142.372 31.9 141.672 31.092 141.184 30.06C140.696 29.028 140.452 27.844 140.452 26.508C140.452 25.148 140.7 23.956 141.196 22.932C141.692 21.908 142.396 21.112 143.308 20.544C144.228 19.968 145.32 19.68 146.584 19.68C147.88 19.68 148.984 19.972 149.896 20.556C150.816 21.132 151.516 21.936 151.996 22.968C152.484 23.992 152.728 25.172 152.728 26.508C152.728 27.868 152.484 29.064 151.996 30.096C151.508 31.12 150.804 31.92 149.884 32.496C148.964 33.072 147.864 33.36 146.584 33.36ZM146.584 31.668C148.024 31.668 149.096 31.192 149.8 30.24C150.504 29.28 150.856 28.036 150.856 26.508C150.856 24.94 150.5 23.692 149.788 22.764C149.084 21.836 148.016 21.372 146.584 21.372C145.616 21.372 144.816 21.592 144.184 22.032C143.56 22.464 143.092 23.068 142.78 23.844C142.476 24.612 142.324 25.5 142.324 26.508C142.324 28.068 142.684 29.32 143.404 30.264C144.124 31.2 145.184 31.668 146.584 31.668ZM155.363 33V20.04H156.935L161.987 30.648L167.051 20.04H168.611V33H166.907V23.808L162.551 33H161.435L157.079 23.808V33H155.363ZM177.381 33.36C176.093 33.36 174.993 33.068 174.081 32.484C173.169 31.9 172.469 31.092 171.981 30.06C171.493 29.028 171.249 27.844 171.249 26.508C171.249 25.148 171.497 23.956 171.993 22.932C172.489 21.908 173.193 21.112 174.105 20.544C175.025 19.968 176.117 19.68 177.381 19.68C178.677 19.68 179.781 19.972 180.693 20.556C181.613 21.132 182.313 21.936 182.793 22.968C183.281 23.992 183.525 25.172 183.525 26.508C183.525 27.868 183.281 29.064 182.793 30.096C182.305 31.12 181.601 31.92 180.681 32.496C179.761 33.072 178.661 33.36 177.381 33.36ZM177.381 31.668C178.821 31.668 179.893 31.192 180.597 30.24C181.301 29.28 181.653 28.036 181.653 26.508C181.653 24.94 181.297 23.692 180.585 22.764C179.881 21.836 178.813 21.372 177.381 21.372C176.413 21.372 175.613 21.592 174.981 22.032C174.357 22.464 173.889 23.068 173.577 23.844C173.273 24.612 173.121 25.5 173.121 26.508C173.121 28.068 173.481 29.32 174.201 30.264C174.921 31.2 175.981 31.668 177.381 31.668ZM186.172 33V20.04H195.052V21.732H187.936V33H186.172ZM200.544 33.36C199.568 33.36 198.748 33.184 198.084 32.832C197.428 32.48 196.936 32.012 196.608 31.428C196.28 30.844 196.116 30.208 196.116 29.52C196.116 28.816 196.256 28.216 196.536 27.72C196.824 27.216 197.212 26.804 197.7 26.484C198.196 26.164 198.768 25.92 199.416 25.752C200.072 25.592 200.796 25.452 201.588 25.332C202.388 25.204 203.168 25.096 203.928 25.008C204.696 24.912 205.368 24.82 205.944 24.732L205.32 25.116C205.344 23.836 205.096 22.888 204.576 22.272C204.056 21.656 203.152 21.348 201.864 21.348C200.976 21.348 200.224 21.548 199.608 21.948C199 22.348 198.572 22.98 198.324 23.844L196.608 23.34C196.904 22.18 197.5 21.28 198.396 20.64C199.292 20 200.456 19.68 201.888 19.68C203.072 19.68 204.076 19.904 204.9 20.352C205.732 20.792 206.32 21.432 206.664 22.272C206.824 22.648 206.928 23.068 206.976 23.532C207.024 23.996 207.048 24.468 207.048 24.948V33H205.476V29.748L205.932 29.94C205.492 31.052 204.808 31.9 203.88 32.484C202.952 33.068 201.84 33.36 200.544 33.36ZM200.748 31.836C201.572 31.836 202.292 31.688 202.908 31.392C203.524 31.096 204.02 30.692 204.396 30.18C204.772 29.66 205.016 29.076 205.128 28.428C205.224 28.012 205.276 27.556 205.284 27.06C205.292 26.556 205.296 26.18 205.296 25.932L205.968 26.28C205.368 26.36 204.716 26.44 204.012 26.52C203.316 26.6 202.628 26.692 201.948 26.796C201.276 26.9 200.668 27.024 200.124 27.168C199.756 27.272 199.4 27.42 199.056 27.612C198.712 27.796 198.428 28.044 198.204 28.356C197.988 28.668 197.88 29.056 197.88 29.52C197.88 29.896 197.972 30.26 198.156 30.612C198.348 30.964 198.652 31.256 199.068 31.488C199.492 31.72 200.052 31.836 200.748 31.836ZM220.372 33.36C219.228 33.36 218.232 33.116 217.384 32.628C216.536 32.132 215.86 31.44 215.356 30.552C214.86 29.656 214.56 28.604 214.456 27.396H211.924V33H210.16V20.04H211.924V25.644H214.444C214.548 24.42 214.852 23.364 215.356 22.476C215.868 21.58 216.548 20.892 217.396 20.412C218.252 19.924 219.248 19.68 220.384 19.68C221.672 19.68 222.772 19.972 223.684 20.556C224.604 21.14 225.304 21.944 225.784 22.968C226.272 23.992 226.516 25.168 226.516 26.496C226.516 27.856 226.268 29.052 225.772 30.084C225.284 31.116 224.58 31.92 223.66 32.496C222.748 33.072 221.652 33.36 220.372 33.36ZM220.336 31.668C221.792 31.668 222.872 31.196 223.576 30.252C224.288 29.3 224.644 28.052 224.644 26.508C224.644 24.932 224.284 23.684 223.564 22.764C222.852 21.836 221.78 21.372 220.348 21.372C218.98 21.372 217.932 21.828 217.204 22.74C216.476 23.644 216.112 24.896 216.112 26.496C216.112 28.064 216.468 29.32 217.18 30.264C217.9 31.2 218.952 31.668 220.336 31.668ZM232.368 33V21.672H227.772V20.04H238.728V21.672H234.132V33H232.368ZM251.017 33.372C249.809 33.364 248.773 33.1 247.909 32.58C247.045 32.06 246.373 31.284 245.893 30.252C245.421 29.22 245.165 27.932 245.125 26.388C245.101 25.708 245.117 24.968 245.173 24.168C245.229 23.36 245.317 22.592 245.437 21.864C245.557 21.136 245.701 20.544 245.869 20.088C246.077 19.496 246.373 18.944 246.757 18.432C247.149 17.912 247.601 17.488 248.113 17.16C248.609 16.824 249.169 16.564 249.793 16.38C250.425 16.188 251.081 16.04 251.761 15.936C252.449 15.832 253.129 15.74 253.801 15.66C254.481 15.58 255.109 15.48 255.685 15.36L255.877 16.956C255.437 17.044 254.917 17.124 254.317 17.196C253.717 17.268 253.089 17.356 252.433 17.46C251.777 17.556 251.149 17.688 250.549 17.856C249.949 18.024 249.437 18.244 249.013 18.516C248.365 18.908 247.865 19.5 247.513 20.292C247.169 21.084 246.957 21.992 246.877 23.016C247.373 22.24 248.029 21.656 248.845 21.264C249.669 20.872 250.561 20.676 251.521 20.676C252.689 20.676 253.693 20.944 254.533 21.48C255.381 22.016 256.033 22.76 256.489 23.712C256.945 24.664 257.173 25.756 257.173 26.988C257.173 28.276 256.921 29.4 256.417 30.36C255.921 31.32 255.213 32.064 254.293 32.592C253.373 33.112 252.281 33.372 251.017 33.372ZM251.149 31.68C252.509 31.68 253.541 31.256 254.245 30.408C254.957 29.56 255.313 28.432 255.313 27.024C255.313 25.584 254.945 24.448 254.209 23.616C253.481 22.784 252.453 22.368 251.125 22.368C249.797 22.368 248.777 22.784 248.065 23.616C247.353 24.448 246.997 25.584 246.997 27.024C246.997 28.464 247.353 29.6 248.065 30.432C248.777 31.264 249.805 31.68 251.149 31.68ZM270.109 20.04V33H268.393V22.908L261.289 33H259.801V20.04H261.517V30.048L268.633 20.04H270.109ZM278.145 33.36C276.841 33.36 275.701 33.076 274.725 32.508C273.757 31.932 272.993 31.136 272.433 30.12L273.849 29.22C274.321 30.02 274.909 30.628 275.613 31.044C276.317 31.46 277.125 31.668 278.037 31.668C278.989 31.668 279.753 31.448 280.329 31.008C280.905 30.568 281.193 29.964 281.193 29.196C281.193 28.668 281.069 28.248 280.821 27.936C280.581 27.624 280.213 27.4 279.717 27.264C279.229 27.128 278.617 27.06 277.881 27.06H276.345V25.548H277.857C278.753 25.548 279.473 25.388 280.017 25.068C280.569 24.74 280.845 24.228 280.845 23.532C280.845 22.796 280.569 22.252 280.017 21.9C279.473 21.54 278.821 21.36 278.061 21.36C277.293 21.36 276.565 21.52 275.877 21.84C275.197 22.152 274.625 22.556 274.161 23.052L273.033 21.864C273.681 21.152 274.437 20.612 275.301 20.244C276.173 19.868 277.137 19.68 278.193 19.68C279.025 19.68 279.777 19.828 280.449 20.124C281.129 20.412 281.665 20.836 282.057 21.396C282.457 21.956 282.657 22.628 282.657 23.412C282.657 24.148 282.477 24.784 282.117 25.32C281.765 25.856 281.265 26.3 280.617 26.652L280.521 25.992C281.081 26.096 281.545 26.32 281.913 26.664C282.281 27.008 282.553 27.42 282.729 27.9C282.905 28.38 282.993 28.868 282.993 29.364C282.993 30.188 282.777 30.9 282.345 31.5C281.921 32.092 281.341 32.552 280.605 32.88C279.877 33.2 279.057 33.36 278.145 33.36ZM285.629 33V20.04H287.393V25.668H294.701V20.04H296.465V33H294.701V27.36H287.393V33H285.629ZM305.305 33.36C304.041 33.36 302.945 33.08 302.017 32.52C301.097 31.96 300.381 31.172 299.869 30.156C299.357 29.14 299.101 27.948 299.101 26.58C299.101 25.164 299.353 23.94 299.857 22.908C300.361 21.876 301.069 21.08 301.981 20.52C302.901 19.96 303.985 19.68 305.233 19.68C306.513 19.68 307.605 19.976 308.509 20.568C309.413 21.152 310.097 21.992 310.561 23.088C311.025 24.184 311.237 25.492 311.197 27.012H309.397V26.388C309.365 24.708 309.001 23.44 308.305 22.584C307.617 21.728 306.609 21.3 305.281 21.3C303.889 21.3 302.821 21.752 302.077 22.656C301.341 23.56 300.973 24.848 300.973 26.52C300.973 28.152 301.341 29.42 302.077 30.324C302.821 31.22 303.873 31.668 305.233 31.668C306.161 31.668 306.969 31.456 307.657 31.032C308.353 30.6 308.901 29.98 309.301 29.172L310.945 29.808C310.433 30.936 309.677 31.812 308.677 32.436C307.685 33.052 306.561 33.36 305.305 33.36ZM300.349 27.012V25.536H310.249V27.012H300.349ZM319.236 33.36C317.932 33.36 316.828 33.068 315.924 32.484C315.02 31.9 314.332 31.096 313.86 30.072C313.396 29.04 313.156 27.856 313.14 26.52C313.156 25.16 313.404 23.968 313.884 22.944C314.364 21.912 315.056 21.112 315.96 20.544C316.864 19.968 317.96 19.68 319.248 19.68C320.56 19.68 321.7 20 322.668 20.64C323.644 21.28 324.312 22.156 324.672 23.268L322.944 23.82C322.64 23.044 322.156 22.444 321.492 22.02C320.836 21.588 320.084 21.372 319.236 21.372C318.284 21.372 317.496 21.592 316.872 22.032C316.248 22.464 315.784 23.068 315.48 23.844C315.176 24.62 315.02 25.512 315.012 26.52C315.028 28.072 315.388 29.32 316.092 30.264C316.796 31.2 317.844 31.668 319.236 31.668C320.116 31.668 320.864 31.468 321.48 31.068C322.104 30.66 322.576 30.068 322.896 29.292L324.672 29.82C324.192 30.972 323.488 31.852 322.56 32.46C321.632 33.06 320.524 33.36 319.236 33.36ZM328.528 38.76L331.036 31.956L331.072 33.972L325.396 20.04H327.268L331.924 31.692H331.156L335.452 20.04H337.252L330.292 38.76H328.528Z" fill="black"/>
</svg>
