<svg width="507" height="507" viewBox="0 0 507 507" fill="none" xmlns="http://www.w3.org/2000/svg">
<circle cx="253.5" cy="252.5" r="134.5" fill="#2C2A4A"/>
<path d="M171.837 161.229C190.854 143.839 215.411 134.461 240.605 130.779C245.147 130.116 249.454 127.766 249.656 133.856V154.493C251.144 161.941 258.377 160.27 260.57 154.493V130.5C288.039 130.375 315.583 144.062 336.349 161.229C331.122 166.51 326.16 172.502 320.654 177.435C314.915 185.212 321.544 191.652 328.63 184.639C333.718 179.262 338.687 173.316 344.8 169.097C362.891 194.383 375.402 210.213 376.501 244.48H354.689C341.408 244.68 342.535 254.344 352.17 255.49L353.125 255.609C352.927 258.524 363.218 269.368 363.582 272.277C323.582 311.277 319.582 312.277 317.082 321.777C300.69 329.729 291.999 345.824 270 350.5C266.734 351.194 263.676 343.593 260.57 344.813C256.48 340.868 253.925 341.312 249.656 344.813C248.793 353.079 250.291 361.636 249.656 369.938C249.604 370.632 249.743 372.657 248.797 372.703C221.798 373.982 190.649 357.28 170.556 339.387C173.934 335.354 178.042 331.806 181.857 328.196C184.563 325.587 188.101 322.78 189.614 319.29C188.951 317.863 188.169 316.554 187.354 315.212C186.105 314.349 184.733 313.769 183.358 313.14C179.524 314.167 176.329 318.137 173.574 320.845C169.818 324.282 166.367 328.04 162.613 331.486C144.415 309.777 130.158 283.429 131.129 254.236H145.851C150.596 254.533 154.828 255.218 158.632 251.638C159.845 248.965 160.237 247.19 158.632 244.48C153.866 242.256 148.358 243.124 143.245 243.22H131.129C131.515 218.538 144.667 185.837 163.817 169.097C167.353 172.057 170.432 175.708 173.574 179.083C176.151 182.272 178.782 185.777 181.857 188.481C185.924 189.877 191.598 186.788 189.614 182.143C187.04 177.483 183.384 173.871 179.782 169.997C177.052 167.187 174.296 164.281 171.837 161.229ZM253.358 182.143C246.541 186.239 249.62 198.848 249.623 206.824L249.646 230.878C249.668 248.381 247.6 245.843 260.599 258.709L276.487 274.532C280.627 278.58 285.79 286.934 292.26 286.029C302.812 279.575 284.424 267.214 280.029 262.826C273.584 256.391 267.37 249.25 260.57 243.22L260.593 205.333C260.596 197.609 264.203 181.507 253.358 182.143Z" fill="#F1EEFF"/>
<path d="M292.173 286.251C285.703 287.157 280.541 278.803 276.4 274.754L260.512 258.931C247.514 246.066 249.581 248.603 249.559 231.101L249.536 207.046C249.533 199.071 246.454 186.461 253.272 182.366C264.117 181.73 260.509 197.832 260.506 205.555L260.483 243.442C267.283 249.472 273.497 256.614 279.942 263.049C284.338 267.437 302.726 279.797 292.173 286.251Z" fill="#2C2A4A"/>
<path d="M372.812 218.5L382.5 245.297L360 244.7C359.473 239.403 372.614 221.415 372.812 218.5Z" fill="#BEADFF"/>
<path d="M249.5 346C249.5 346 250.5 365 249.5 377C248.499 389 246.5 381 246.5 381L186.5 355C185.972 349.703 245.5 346 249.5 346Z" fill="#BEADFF"/>
<path d="M260.484 345.039C263.591 343.819 267.206 343.391 270.472 342.696C281.257 340.404 305.37 329.438 322.5 312C326.069 308.367 328.399 304.71 332.5 299.5C345.12 283.467 346.319 259.071 353 255.83C356.479 255.83 377 255.5 377 255.5C377 289 360.751 327.444 352 329.5C343.5 325.5 330 306 322.5 312C318 319 338 328 342 337.5C342.522 344.898 320.947 357.398 303.5 365.5C288.297 372.56 277.223 371.388 260.484 373.002C260.492 363.684 260.596 354.355 260.484 345.039Z" fill="#BEADFF"/>
<path d="M207.528 58.2082C207.618 38.0322 200.492 7.26218 225.648 0.048179L261.342 0.000174888C309.192 -0.0638251 300.016 17.4342 299.89 58.2082C304.69 59.4122 309.37 60.7542 314.08 62.2702C330.176 67.1182 345.904 74.9242 360.158 83.7902C375.894 69.6822 395.41 37.2582 418.19 58.7882C425.028 65.2502 449.528 88.7862 453.504 95.3042C465.322 114.678 434.988 136.234 423.478 147.778C436.074 163.78 442.694 185.52 447.86 204.864C474.962 204.81 505.68 197.67 506.25 235.626C507.218 300.116 503.64 294.368 445.934 294.21C441.642 321.644 433.204 331.818 423.478 354.654C431.638 364.718 441.712 373.114 450.2 382.87C466.906 402.072 441.526 418.898 429.412 431.374C419.104 441.994 406.174 463.372 389.264 451.514C382.594 446.838 361.12 426.292 355.98 419.542C339.254 431.886 319.798 440.592 299.89 446.236C299.928 456.602 301.204 481.284 299.032 490.464C294.16 511.06 267.3 506.42 251.432 506.532C235.772 506.646 215.216 510.756 209.328 491.224C206.376 481.424 207.836 455.56 207.528 443.944C186.47 438.438 168.66 428.658 149.23 419.542C134.878 428.348 119.996 466.406 97.2298 450.2C91.5438 446.152 57.2714 412.184 53.8978 406.8C43.2132 389.75 72.3718 361.802 84.1138 354.654C72.7038 337.12 63.1988 314.932 60.2204 294.21C36.3134 295.816 0.780761 301.45 0.333361 269.364C0.190361 259.118 -0.722238 229.506 1.26236 221.184C6.78236 198.036 42.2784 204.822 60.2204 204.864C65.6542 181.076 72.9258 168.49 84.1138 147.778C52.8646 114.41 39.2102 111.806 74.2558 77.1222C85.9738 65.5242 100.748 44.0562 119.442 55.1422C126.172 59.1322 145.762 77.6102 150.898 83.7902C166.38 70.9022 188.284 63.4222 207.528 58.2082ZM227.684 12.9122C211.028 17.1582 227.21 54.8002 218.94 66.6582C216.47 70.2022 180.436 81.2802 172.206 85.5322C164.498 89.5142 157.2 94.9462 149.23 98.2442C137.838 92.3442 124.77 74.1502 112.218 66.6982C103.118 61.2942 91.0878 79.1742 84.6698 85.5882C78.9838 91.2742 62.8684 102.2 67.9936 111.68C73.2838 121.464 91.6577 134.01 97.0677 143.586C101.148 150.806 92.1878 159.26 88.8518 165.222C84.9078 172.266 69.0078 216.478 68.7742 216.64C60.7224 222.23 19.5046 210.158 14.2818 223.594C12.5634 228.014 12.4018 272.07 14.27 276.244C19.4022 287.714 56.787 277.426 67.9368 282.368C73.4678 284.82 74.7638 302.03 76.4738 307.656C78.7158 315.036 97.4018 353.418 96.8838 355.652C94.6958 365.084 60.9947 391.032 65.0137 399.464C68.7427 407.288 79.7458 415.18 85.8878 421.334C91.0138 426.47 103.79 444.55 112.268 439.76C121.304 434.656 139.478 401.644 148.216 403.718C153.564 404.988 168.574 415.152 175.206 418.352C189.322 425.164 205.49 429.932 220.712 433.52L220.67 465.78C220.686 475.732 217.184 492.968 230.024 493.746C239.894 494.346 278.24 494.636 284.204 492.166C290.15 485.974 287.014 457.848 286.924 448.84C286.76 432.054 288.566 435.672 303.356 431.306C316.7 427.366 328.916 421.25 340.75 413.992C343.814 412.112 353.878 404.056 356.732 403.984C362.826 403.832 391.94 439.946 398.666 442.318C402.794 443.772 420.914 421.688 424.334 418.094C428.048 414.19 442.3 401.936 442.938 396.578C443.492 391.92 414.096 364.108 406.104 357.298C415.59 342.162 424.338 326.688 429.422 309.436C431.344 302.916 432.212 283.418 440.224 281.506C451.562 278.8 484.028 286.142 490.766 276.586C495.136 270.392 493.87 233.308 492.53 226.848C491.8 223.33 487.908 219.488 485.108 217.522C476.532 217.522 444.142 218.776 438.462 216.468C434.458 210.944 433.254 200.318 431.028 193.632C428.866 187.142 408.96 145.792 409.136 145.008C410.816 137.564 437.018 118.708 442.054 109.668C447.524 99.8502 430.336 89.4862 424.434 83.6362C418.148 77.4042 407.226 59.9702 396.84 66.1682C388.968 70.8642 366.968 99.9242 358.818 97.8862C354.574 96.8242 344.512 89.7962 340.008 87.3262C331.838 82.8422 289.47 68.9322 288.104 66.0302C282.808 54.7742 293.592 18.6362 282.026 13.9182C277.52 12.0802 235.686 12.6322 227.684 12.9122Z" fill="#2C2A4A"/>
<path d="M149.229 98.2442C157.199 94.9462 164.497 89.5142 172.205 85.5322C180.435 81.2802 216.469 70.2022 218.939 66.6582C227.209 54.8002 211.027 17.1582 227.683 12.9122C235.685 12.6322 277.519 12.0802 282.025 13.9182C293.591 18.6362 282.807 54.7742 288.103 66.0302C289.469 68.9322 331.837 82.8422 340.007 87.3262C344.511 89.7962 354.573 96.8242 358.817 97.8862C366.967 99.9242 388.967 70.8642 396.839 66.1682C407.225 59.9702 418.147 77.4042 424.433 83.6362C430.335 89.4862 447.523 99.8502 442.053 109.668C437.017 118.708 410.815 137.564 409.135 145.008C408.959 145.792 428.865 187.142 431.027 193.632C433.253 200.318 434.457 210.944 438.461 216.468C444.141 218.776 476.531 217.522 485.107 217.522C487.907 219.488 491.799 223.33 492.529 226.848C493.869 233.308 495.135 270.392 490.765 276.586C484.027 286.142 451.561 278.8 440.223 281.506C432.211 283.418 431.343 302.916 429.421 309.436C424.337 326.688 415.589 342.162 406.103 357.298C414.095 364.108 443.491 391.92 442.937 396.578C442.299 401.936 428.047 414.19 424.333 418.094C420.913 421.688 402.793 443.772 398.665 442.318C391.939 439.946 362.825 403.832 356.731 403.984C353.877 404.056 343.813 412.112 340.749 413.992C328.915 421.25 316.699 427.366 303.355 431.306C288.565 435.672 286.759 432.054 286.923 448.84C287.013 457.848 290.149 485.974 284.203 492.166C278.239 494.636 239.893 494.346 230.023 493.746C217.183 492.968 220.685 475.732 220.669 465.78L220.711 433.52C205.489 429.932 189.321 425.164 175.205 418.352C168.573 415.152 153.563 404.988 148.215 403.718C139.477 401.644 121.303 434.656 112.267 439.76C103.789 444.55 91.0133 426.47 85.8873 421.334C79.7453 415.18 68.7423 407.288 65.0133 399.464C60.9943 391.032 94.6953 365.084 96.8833 355.652C97.4013 353.418 78.7153 315.036 76.4733 307.656C74.7633 302.03 73.4673 284.82 67.9363 282.368C56.7865 277.426 19.4017 287.714 14.2695 276.244C12.4014 272.07 12.5629 228.014 14.2813 223.594C19.5041 210.158 60.7219 222.23 68.7737 216.64C69.0073 216.478 84.9073 172.266 88.8513 165.222C92.1873 159.26 101.147 150.806 97.0673 143.586C91.6573 134.01 73.2834 121.464 67.9932 111.68C62.868 102.2 78.9833 91.2741 84.6693 85.5882C91.0873 79.1741 103.117 61.2942 112.217 66.6982C124.769 74.1502 137.837 92.3442 149.229 98.2442ZM243.533 118.186C170.449 123.968 115.869 187.872 121.591 260.96C127.313 334.05 191.171 388.68 264.265 383.018C337.443 377.35 392.151 313.402 386.423 240.228C380.693 167.054 316.701 112.4 243.533 118.186Z" fill="#BEADFF"/>
<path d="M149.229 98.2442C157.199 94.9462 164.497 89.5142 172.205 85.5322C180.435 81.2802 216.469 70.2022 218.939 66.6582C227.209 54.8002 211.027 17.1582 227.683 12.9122C235.685 12.6322 277.519 12.0802 282.025 13.9182C293.591 18.6362 282.807 54.7742 288.103 66.0302C289.469 68.9322 331.837 82.8422 340.007 87.3262C344.511 89.7962 354.573 96.8242 358.817 97.8862C366.967 99.9242 388.967 70.8642 396.839 66.1682C407.225 59.9702 418.147 77.4042 424.433 83.6362C430.335 89.4862 447.523 99.8502 442.053 109.668C437.017 118.708 410.815 137.564 409.135 145.008C408.959 145.792 428.865 187.142 431.027 193.632C433.253 200.318 434.457 210.944 438.461 216.468C444.141 218.776 476.531 217.522 485.107 217.522C487.907 219.488 491.799 223.33 492.529 226.848C493.869 233.308 495.135 270.392 490.765 276.586C484.027 286.142 451.561 278.8 440.223 281.506C432.211 283.418 431.343 302.916 429.421 309.436C424.337 326.688 415.589 342.162 406.103 357.298C414.095 364.108 443.491 391.92 442.937 396.578C442.299 401.936 428.047 414.19 424.333 418.094C420.913 421.688 402.793 443.772 398.665 442.318C391.939 439.946 362.825 403.832 356.731 403.984C353.877 404.056 343.813 412.112 340.749 413.992C328.915 421.25 316.699 427.366 303.355 431.306C288.565 435.672 286.759 432.054 286.923 448.84C287.013 457.848 290.149 485.974 284.203 492.166C278.239 494.636 239.893 494.346 230.023 493.746C217.183 492.968 220.685 475.732 220.669 465.78L220.711 433.52C205.489 429.932 189.321 425.164 175.205 418.352C168.573 415.152 153.563 404.988 148.215 403.718C139.477 401.644 121.303 434.656 112.267 439.76C103.789 444.55 91.0133 426.47 85.8873 421.334C79.7453 415.18 68.7423 407.288 65.0133 399.464C60.9943 391.032 94.6953 365.084 96.8833 355.652C97.4013 353.418 78.7153 315.036 76.4733 307.656C74.7633 302.03 73.4673 284.82 67.9363 282.368C56.7865 277.426 19.4017 287.714 14.2695 276.244C12.4014 272.07 12.5629 228.014 14.2813 223.594C19.5041 210.158 60.7219 222.23 68.7737 216.64C69.0073 216.478 84.9073 172.266 88.8513 165.222C92.1873 159.26 101.147 150.806 97.0673 143.586C91.6573 134.01 73.2834 121.464 67.9932 111.68C62.868 102.2 78.9833 91.2741 84.6693 85.5882C91.0873 79.1741 103.117 61.2942 112.217 66.6982C124.769 74.1502 137.837 92.3442 149.229 98.2442ZM243.533 118.186C170.449 123.968 115.869 187.872 121.591 260.96C127.313 334.05 191.171 388.68 264.265 383.018C337.443 377.35 392.151 313.402 386.423 240.228C380.693 167.054 316.701 112.4 243.533 118.186Z" fill="#BEADFF"/>
<path d="M264.265 383.018C191.171 388.68 127.313 334.05 121.591 260.96C115.869 187.872 170.45 123.968 243.534 118.186C316.701 112.4 380.694 167.054 386.424 240.228C392.152 313.402 337.443 377.35 264.265 383.018ZM243.534 128C177.74 133.354 126.746 195.158 132 260.96C137.254 326.762 198.455 377.654 264.265 372.5C330.217 367.334 381.766 307.444 376.5 241.5C371.234 175.556 309.469 122.632 243.534 128Z" fill="#2C2A4A"/>
</svg>
